<svg  xmlns="http://www.w3.org/2000/svg" height="200" width='100%' viewBox="0 0 1440 320"><path fill="#0099ff" fill-opacity="1" d="M0,128L26.7,117.3C53.3,107,107,85,160,96C213.3,107,267,149,320,144C373.3,139,427,85,480,53.3C533.3,21,587,11,640,21.3C693.3,32,747,64,800,96C853.3,128,907,160,960,160C1013.3,160,1067,128,1120,138.7C1173.3,149,1227,203,1280,197.3C1333.3,192,1387,128,1413,96L1440,64L1440,320L1413.3,320C1386.7,320,1333,320,1280,320C1226.7,320,1173,320,1120,320C1066.7,320,1013,320,960,320C906.7,320,853,320,800,320C746.7,320,693,320,640,320C586.7,320,533,320,480,320C426.7,320,373,320,320,320C266.7,320,213,320,160,320C106.7,320,53,320,27,320L0,320Z"></path></svg>